HIERARCHY
ROOT Hips
{
	OFFSET	0.00	0.00	0.00
	CHANNELS 6 Xposition Yposition Zposition Zrotation Xrotation Yrotation
	JOINT LeftUpLeg
	{
		OFFSET	 0.126116	-0.065224	 0.014019
		CHANNELS 3 Zrotation Xrotation Yrotation
		JOINT LeftLeg
		{
			OFFSET	 0.000000	 0.569914	 0.000000
			CHANNELS 3 Zrotation Xrotation Yrotation
			JOINT LeftFoot
			{
				OFFSET	 0.000000	 0.544423	 0.000000
				CHANNELS 3 Zrotation Xrotation Yrotation
				JOINT LeftToeBase
				{
					OFFSET	 0.000000	 0.207117	 0.000000
					CHANNELS 3 Zrotation Xrotation Yrotation
					End Site
					{
						OFFSET	 0.000000	 0.207117	 0.000000
					}
				}
			}
		}
	}
	JOINT RightUpLeg
	{
		OFFSET	-0.124023	-0.065224	 0.008373
		CHANNELS 3 Zrotation Xrotation Yrotation
		JOINT RightLeg
		{
			OFFSET	 0.000000	 0.570047	 0.000000
			CHANNELS 3 Zrotation Xrotation Yrotation
			JOINT RightFoot
			{
				OFFSET	 0.000000	 0.544354	 0.000000
				CHANNELS 3 Zrotation Xrotation Yrotation
				JOINT RightToeBase
				{
					OFFSET	 0.000000	 0.207540	 0.000000
					CHANNELS 3 Zrotation Xrotation Yrotation
					End Site
					{
						OFFSET	 0.000000	 0.207540	 0.000000
					}
				}
			}
		}
	}
	JOINT Spine
	{
		OFFSET	 0.000184	 0.117403	 0.007763
		CHANNELS 3 Zrotation Xrotation Yrotation
		JOINT Spine1
		{
			OFFSET	 0.000000	 0.137269	 0.000000
			CHANNELS 3 Zrotation Xrotation Yrotation
			JOINT Spine2
			{
				OFFSET	 0.000000	 0.156879	 0.000000
				CHANNELS 3 Zrotation Xrotation Yrotation
				JOINT LeftShoulder
				{
					OFFSET	 0.080501	 0.160143	 0.002496
					CHANNELS 3 Zrotation Xrotation Yrotation
					JOINT LeftArm
					{
						OFFSET	 0.000000	 0.164363	 0.000000
						CHANNELS 3 Zrotation Xrotation Yrotation
						JOINT LeftForeArm
						{
							OFFSET	 0.000000	 0.364576	 0.000000
							CHANNELS 3 Zrotation Xrotation Yrotation
							JOINT LeftHand
							{
								OFFSET	 0.000000	 0.360812	 0.000000
								CHANNELS 3 Zrotation Xrotation Yrotation
								JOINT LeftHandIndex1
								{
									OFFSET	 0.000000	 0.086006	 0.000000
									CHANNELS 3 Zrotation Xrotation Yrotation
									JOINT LeftHandIndex2
									{
										OFFSET	 0.000000	 0.047237	 0.000000
										CHANNELS 3 Zrotation Xrotation Yrotation
										JOINT LeftHandIndex3
										{
											OFFSET	-0.004284	 0.038165	 0.000551
											CHANNELS 3 Zrotation Xrotation Yrotation
											End Site
											{
												OFFSET	-0.004284	 0.038165	 0.000551
											}
										}
									}
								}
							}
						}
					}
				}
				JOINT Neck
				{
					OFFSET	 0.000000	 0.176489	 0.000000
					CHANNELS 3 Zrotation Xrotation Yrotation
					JOINT Head
					{
						OFFSET	 0.000000	 0.077941	 0.001747
						CHANNELS 3 Zrotation Xrotation Yrotation
						End Site
						{
							OFFSET	 0.000000	 0.077941	 0.001747
						}
					}
				}
				JOINT RightShoulder
				{
					OFFSET	-0.080363	 0.159706	-0.000306
					CHANNELS 3 Zrotation Xrotation Yrotation
					JOINT RightArm
					{
						OFFSET	 0.000000	 0.164196	 0.000000
						CHANNELS 3 Zrotation Xrotation Yrotation
						JOINT RightForeArm
						{
							OFFSET	 0.000000	 0.365611	 0.000000
							CHANNELS 3 Zrotation Xrotation Yrotation
							JOINT RightHand
							{
								OFFSET	 0.000000	 0.360648	 0.000000
								CHANNELS 3 Zrotation Xrotation Yrotation
								JOINT RightHandIndex1
								{
									OFFSET	 0.000000	 0.069977	 0.000000
									CHANNELS 3 Zrotation Xrotation Yrotation
									JOINT RightHandIndex2
									{
										OFFSET	 0.000000	 0.052305	 0.000000
										CHANNELS 3 Zrotation Xrotation Yrotation
										JOINT RightHandIndex3
										{
											OFFSET	 0.009002	 0.042196	 0.000782
											CHANNELS 3 Zrotation Xrotation Yrotation
											End Site
											{
												OFFSET	 0.009002	 0.042196	 0.000782
											}
										}
									}
								}
							}
						}
					}
				}
			}
		}
	}
}
MOTION
Frames:    5
Frame Time: 0.03333334
-0.001954	 1.228439	-0.025813	 1.652777	-0.143773	 172.015800	-157.991300	 11.515400	-34.504140	 4.904429	-17.803380	 2.786977	-10.373350	 60.385960	 2.986939	 1.161779	 26.685910	-2.659560	 170.066300	 8.677333	 25.541580	-2.523604	-30.197610	 7.699121	 16.843650	 77.696280	-11.282740	-1.288757	 28.369370	 2.710418	 2.309720	 5.855054	 3.560391	-1.305792	 3.310623	 2.110592	 3.164699	-2.907906	-2.356256	-113.089800	 6.498742	 92.946130	 22.161410	 48.098110	 3.141464	 4.956846	-0.255668	-0.072724	 19.506470	 11.044490	 17.243260	 0.643234	 8.397716	-0.355248	-5.948579	 13.635040	 1.524113	 4.990110	-3.422428	-0.332528	 3.182832	-6.827899	 0.888280	-1.246744	-5.509159	 2.850460	 123.388400	 10.385110	-96.376050	-6.350226	 40.652790	-2.580835	-4.978490	-0.195264	 0.050062	 0.072082	 3.922424	-14.826110	-2.337413	 4.938144	 0.895079	 12.548160	 23.037620	-5.193059	-8.501657	 13.215580	-0.532656
 0.004853	 1.221966	-0.072564	 1.416322	-0.967017	 170.842000	-157.378200	 12.430850	-35.853640	 5.567722	-20.023320	 2.526464	-12.170810	 61.987960	 4.325879	 1.160754	 26.672040	-2.659153	 169.828800	 7.544489	 24.554240	-2.581476	-30.905130	 7.192343	 19.688400	 79.888080	-12.634370	-1.287776	 28.356480	 2.710003	 2.592931	 5.183866	 4.353583	-3.170935	 2.952530	 3.216520	 4.059444	-2.991240	-2.104650	-112.642900	 6.561754	 92.992870	 21.942970	 48.874450	 3.831353	 4.889825	-0.249850	-0.073076	 20.034750	 11.005750	 19.504880	 0.989989	 7.320433	-0.349179	-5.944223	 13.876920	 1.550053	 5.007577	-3.037987	-0.323322	 3.170156	-6.837345	 0.961310	-1.257197	-5.723391	 3.410165	 123.088700	 10.433820	-96.344570	-5.486898	 41.740210	-2.841494	-4.907693	-0.190704	 0.050283	-1.215568	 2.992169	-12.174770	-2.462907	 5.331142	 0.890587	 12.626610	 24.074660	-5.445674	-8.508651	 14.064400	-0.586288
 0.019153	 1.212696	-0.127151	 0.955730	-2.181335	 168.211200	-156.690900	 12.423720	-38.776270	 5.864351	-20.995840	 1.545128	-15.246400	 63.059430	 7.059718	 1.158418	 26.640410	-2.658227	 169.612900	 6.546702	 22.643230	-2.621696	-31.582940	 6.082620	 19.249040	 82.535360	-10.549780	-1.285541	 28.327070	 2.709058	 3.195269	 4.316275	 6.524580	-7.829626	 2.729889	 6.204445	 6.254839	-3.628495	-1.561294	-111.623900	 6.706784	 93.097630	 22.288730	 49.534970	 4.748528	 4.860487	-0.242976	-0.073190	 20.972810	 12.030180	 25.054940	 1.779712	 4.860776	-0.310843	-5.934696	 14.428390	 1.609226	 5.047155	-2.161388	-0.302779	 3.141304	-6.858941	 1.127796	-1.272914	-6.212321	 4.688022	 122.405100	 10.544250	-96.271810	-3.913014	 43.967430	-3.171155	-4.889045	-0.185821	 0.050288	-3.828568	 0.911385	-5.276605	-2.749276	 6.227297	 0.883570	 12.827390	 26.440960	-6.036568	-8.521622	 16.001300	-0.709077
 0.027576	 1.210161	-0.124152	 0.518603	-3.070368	 165.175400	-155.815500	 12.449900	-42.247420	 6.082711	-21.703470	 0.336991	-18.553180	 63.305900	 10.419840	 1.155651	 26.602930	-2.657130	 169.438100	 8.676946	 21.146430	-2.824836	-33.043420	 4.578989	 7.952636	 83.086450	 0.751362	-1.282894	 28.292210	 2.707940	 3.558427	 3.807992	 9.465625	-13.390870	 3.031055	 10.274330	 8.756673	-4.978217	-0.965954	-110.415700	 6.881111	 93.218510	 23.825540	 49.015540	 4.949306	 4.959331	-0.241629	-0.072776	 21.635920	 14.499760	 31.974220	 2.716788	 1.941907	-0.221445	-5.924136	 15.082120	 1.679443	 5.093644	-1.122136	-0.279220	 3.107186	-6.884647	 1.325134	-1.276815	-6.792811	 6.205359	 121.594300	 10.674050	-96.183810	-2.746745	 46.269420	-3.055086	-5.010848	-0.185703	 0.049940	-6.287833	-1.589730	 3.756695	-3.089332	 7.289772	 0.881083	 13.107740	 29.246840	-6.767209	-8.531517	 18.299140	-0.855824
 0.035176	 1.208376	-0.118486	 0.063601	-4.074505	 162.201400	-154.925600	 12.490260	-45.709130	 6.232252	-22.183940	-0.890856	-21.790000	 63.331460	 13.736730	 1.152894	 26.565570	-2.656040	 169.463000	 10.968140	 19.604250	-2.960054	-34.278000	 3.189181	-5.178761	 83.084400	 13.786800	-1.280256	 28.257470	 2.706827	 3.377865	 3.039543	 12.407340	-17.842200	 3.273644	 14.357630	 10.632050	-6.508868	-0.399943	-109.211200	 7.057361	 93.335300	 25.428430	 48.376090	 5.134598	 5.060147	-0.240511	-0.072341	 22.233340	 17.103340	 38.781370	 3.655279	-0.966675	-0.084841	-5.914404	 15.733790	 1.749534	 5.139555	-0.086128	-0.256580	 3.073262	-6.910387	 1.521841	-1.264788	-7.371057	 7.718951	 120.785600	 10.802220	-96.094200	-2.091699	 48.479430	-2.583998	-5.133536	-0.185681	 0.049496	-8.018476	-4.475455	 12.716440	-3.429138	 8.348913	 0.884941	 13.437460	 32.041050	-7.533225	-8.535268	 20.590060	-1.003790
